<svg width="32" height="32" viewBox="0 0 32 32" fill="none" xmlns="http://www.w3.org/2000/svg">
<mask id="mask0_83_98" style="mask-type:alpha" maskUnits="userSpaceOnUse" x="5" y="4" width="24" height="24">
<rect x="5" y="4" width="24" height="24" fill="#D9D9D9"/>
</mask>
<g mask="url(#mask0_83_98)">
<path d="M7.44444 25.3333H9.18611L21.1333 12.3L19.3917 10.4L7.44444 23.4333V25.3333ZM5 28V22.3333L21.1333 4.76667C21.3778 4.52222 21.6477 4.33333 21.9431 4.2C22.2384 4.06667 22.5491 4 22.875 4C23.2009 4 23.5167 4.06667 23.8222 4.2C24.1278 4.33333 24.3926 4.53333 24.6167 4.8L26.2972 6.66667C26.5417 6.91111 26.7199 7.2 26.8319 7.53333C26.944 7.86667 27 8.2 27 8.53333C27 8.88889 26.944 9.22778 26.8319 9.55C26.7199 9.87222 26.5417 10.1667 26.2972 10.4333L10.1944 28H5ZM20.2472 11.3667L19.3917 10.4L21.1333 12.3L20.2472 11.3667Z" fill="white"/>
</g>
</svg>
