<svg width="32" height="32" viewBox="0 0 32 32" fill="none" xmlns="http://www.w3.org/2000/svg">
<path d="M27 16.0009C26.9993 16.3448 26.9104 16.6828 26.7419 16.9826C26.5734 17.2824 26.3309 17.534 26.0375 17.7134L8.03751 28.7009C7.73768 28.8909 7.39141 28.9949 7.03651 29.0015C6.68161 29.0082 6.33171 28.9171 6.02501 28.7384C5.71377 28.5677 5.45432 28.3162 5.27394 28.0104C5.09356 27.7047 4.99893 27.3559 5.00001 27.0009V5.00094C4.99893 4.64594 5.09356 4.29721 5.27394 3.99145C5.45432 3.68569 5.71377 3.43419 6.02501 3.26344C6.33171 3.08473 6.68161 2.99372 7.03651 3.00034C7.39141 3.00695 7.73768 3.11093 8.03751 3.30094L26.0375 14.2884C26.3309 14.4679 26.5734 14.7195 26.7419 15.0193C26.9104 15.3191 26.9993 15.657 27 16.0009Z" fill="white"/>
</svg>
